<svg xmlns="http://www.w3.org/2000/svg" viewBox="0 0 1118 737"><defs><linearGradient id="b" x1="0%" x2="25.882%" y1="96.593%" y2="0%"><stop offset="0%" stop-color="#D1C3FC"/><stop offset="100%" stop-color="#9BC4FC"/></linearGradient><filter filterUnits="userSpaceOnUse" id="a" x="0" y="0" width="1118" height="737"><feOffset in="SourceAlpha" dx="8.004" dy="10.244"/><feGaussianBlur result="blurOut" stdDeviation="7.55"/><feFlood flood-color="#000" result="floodOut"/><feComposite operator="atop" in="floodOut" in2="blurOut"/><feComponentTransfer><feFuncA type="linear" slope=".1"/></feComponentTransfer><feMerge><feMergeNode/><feMergeNode in="SourceGraphic"/></feMerge></filter></defs><g filter="url(#a)"><path fill-rule="evenodd" fill="#F4F4F4" d="M1041.408 309.163c-21.766 60.929-65.336 111.208-108.573 159.334-43.256 48.145-87.943 97.033-112.784 156.769-5.976 14.39-10.697 29.133-14.595 44.131H47.995V446.451c75.836 48.908 158.882 86.578 245.826 110.719 63.866 17.719 131.552 28.331 196.379 14.469 64.826-13.882 126.439-55.957 149.615-118.022 32.854-87.969-16.75-189.173 10.207-279.119C677.155 84.024 783.984 30.279 876.1 51.327c120.053 27.41 209.231 134.821 165.308 257.836Z"/></g><path fill="url(#b)" d="M1041.408 309.163c-21.766 60.929-65.336 111.208-108.573 159.334-43.256 48.145-87.943 97.033-112.784 156.769-5.976 14.39-10.697 29.133-14.595 44.131H47.995V446.451c75.836 48.908 158.882 86.578 245.826 110.719 63.866 17.719 131.552 28.331 196.379 14.469 64.826-13.882 126.439-55.957 149.615-118.022 32.854-87.969-16.75-189.173 10.207-279.119C677.155 84.024 783.984 30.279 876.1 51.327c120.053 27.41 209.231 134.821 165.308 257.836Z"/></svg>