<svg xmlns="http://www.w3.org/2000/svg" viewBox="0 0 201 201"><defs><linearGradient id="b" x1="0%" x2="25.882%" y1="96.593%" y2="0%"><stop offset="0%" stop-color="#B3B6EB"/><stop offset="100%" stop-color="#E98A98"/></linearGradient><filter filterUnits="userSpaceOnUse" id="a" x="0" y="0" width="201" height="201"><feOffset in="SourceAlpha" dx="8.004" dy="10.244"/><feGaussianBlur result="blurOut" stdDeviation="4"/><feFlood flood-color="#000" result="floodOut"/><feComposite operator="atop" in="floodOut" in2="blurOut"/><feComponentTransfer><feFuncA type="linear" slope=".1"/></feComponentTransfer><feMerge><feMergeNode/><feMergeNode in="SourceGraphic"/></feMerge></filter></defs><g filter="url(#a)"><path fill-rule="evenodd" fill="#FAFAFA" d="M165.762 100.562H102.56v63.202c0 5.786-4.69 10.476-10.476 10.476-5.787 0-10.477-4.69-10.477-10.476v-63.202H18.405c-5.786 0-10.476-4.69-10.476-10.476 0-5.787 4.69-10.477 10.476-10.477h63.202V16.407c0-5.786 4.69-10.476 10.477-10.476 5.786 0 10.476 4.69 10.476 10.476v63.202h63.202c5.786 0 10.476 4.69 10.476 10.477 0 5.786-4.69 10.476-10.476 10.476Z"/></g><path fill="url(#b)" d="M165.762 100.562H102.56v63.202c0 5.786-4.69 10.476-10.476 10.476-5.787 0-10.477-4.69-10.477-10.476v-63.202H18.405c-5.786 0-10.476-4.69-10.476-10.476 0-5.787 4.69-10.477 10.476-10.477h63.202V16.407c0-5.786 4.69-10.476 10.477-10.476 5.786 0 10.476 4.69 10.476 10.476v63.202h63.202c5.786 0 10.476 4.69 10.476 10.477 0 5.786-4.69 10.476-10.476 10.476Z"/></svg>