<svg xmlns="http://www.w3.org/2000/svg" viewBox="0 0 764 551"><defs><linearGradient id="b" x1="0%" x2="25.882%" y1="96.593%" y2="0%"><stop offset="0%" stop-color="#B3B6EB"/><stop offset="100%" stop-color="#E98A98"/></linearGradient><filter filterUnits="userSpaceOnUse" id="a" x="0" y="0" width="764" height="551"><feOffset in="SourceAlpha" dx="8.004" dy="10.244"/><feGaussianBlur result="blurOut" stdDeviation="9.487"/><feFlood flood-color="#000" result="floodOut"/><feComposite operator="atop" in="floodOut" in2="blurOut"/><feComponentTransfer><feFuncA type="linear" slope=".1"/></feComponentTransfer><feMerge><feMergeNode/><feMergeNode in="SourceGraphic"/></feMerge></filter></defs><g filter="url(#a)"><path fill-rule="evenodd" fill="#F4F4F4" d="M664.616 117.234c-7.947 71.27-68.864 137.42-140.582 137.161-46.027-.176-87.68-25.264-131.344-39.825-43.664-14.547-99.758-14.941-127.01 22.14-35.01 47.65 11.452 81.865 16.574 128.713 2.323 21.258-2.962 43.968-16.819 60.037-1.331 1.535-2.731 3.015-4.211 4.415-14.577 13.854-35.227 19.858-55.334 20.469-43.582 1.345-87.775-10.105-124.143-33.889V79.378h583.046c1.236 12.524 1.236 25.183-.177 37.856Z"/></g><path fill="url(#b)" d="M664.616 117.234c-7.947 71.27-68.864 137.42-140.582 137.161-46.027-.176-87.68-25.264-131.344-39.825-43.664-14.547-99.758-14.941-127.01 22.14-35.01 47.65 11.452 81.865 16.574 128.713 2.323 21.258-2.962 43.968-16.819 60.037-1.331 1.535-2.731 3.015-4.211 4.415-14.577 13.854-35.227 19.858-55.334 20.469-43.582 1.345-87.775-10.105-124.143-33.889V79.378h583.046c1.236 12.524 1.236 25.183-.177 37.856Z"/></svg>