<svg xmlns="http://www.w3.org/2000/svg" viewBox="0 0 603 232"><defs><filter filterUnits="userSpaceOnUse" id="a" x="0" y="0" width="603" height="232"><feOffset in="SourceAlpha" dx="8.004" dy="10.244"/><feGaussianBlur result="blurOut" stdDeviation="4"/><feFlood flood-color="#000" result="floodOut"/><feComposite operator="atop" in="floodOut" in2="blurOut"/><feComponentTransfer><feFuncA type="linear" slope=".1"/></feComponentTransfer><feMerge><feMergeNode/><feMergeNode in="SourceGraphic"/></feMerge></filter></defs><g filter="url(#a)"><path fill-rule="evenodd" fill="#FFF" d="M563.655 35.435c-16.543 0-24.169 7.18-34.724 17.114-12.01 11.308-26.961 25.379-55.561 25.379-28.601 0-43.552-14.074-55.562-25.381-10.554-9.935-18.181-17.112-34.718-17.112-16.524 0-24.145 7.177-34.688 17.112-12.01 11.307-26.949 25.381-55.538 25.381-28.594 0-43.539-14.074-55.543-25.381-10.549-9.935-18.176-17.112-34.707-17.112-16.523 0-24.139 7.177-34.682 17.109-12.004 11.31-26.949 25.384-55.531 25.384-28.583 0-43.522-14.074-55.526-25.384-10.543-9.932-18.157-17.109-34.671-17.109-8.398 0-15.205-6.811-15.205-15.215S13.806 5.005 22.204 5.005c28.577 0 43.516 14.074 55.52 25.384 10.543 9.932 18.158 17.109 34.677 17.109 16.524 0 24.14-7.177 34.683-17.109 12.004-11.31 26.948-25.384 55.53-25.384 28.595 0 43.54 14.074 55.544 25.381 10.549 9.935 18.176 17.112 34.706 17.112 16.525 0 24.146-7.177 34.689-17.112 12.01-11.307 26.949-25.381 55.537-25.381 28.595 0 43.545 14.071 55.555 25.379 10.556 9.934 18.182 17.114 34.725 17.114 16.542 0 24.169-7.18 34.724-17.114 12.01-11.308 26.961-25.379 55.561-25.379 8.399 0 15.206 6.811 15.206 15.215s-6.807 15.215-15.206 15.215ZM22.204 132.483c28.577 0 43.516 14.074 55.52 25.384 10.543 9.932 18.158 17.109 34.677 17.109 16.524 0 24.14-7.177 34.683-17.109 12.004-11.31 26.948-25.384 55.53-25.384 28.595 0 43.54 14.074 55.544 25.381 10.549 9.935 18.176 17.112 34.706 17.112 16.525 0 24.146-7.177 34.689-17.112 12.01-11.307 26.949-25.381 55.537-25.381 8.4 0 15.206 6.811 15.206 15.215s-6.806 15.215-15.206 15.215c-16.524 0-24.145 7.177-34.688 17.112-12.01 11.307-26.949 25.381-55.538 25.381-28.594 0-43.539-14.074-55.543-25.381-10.549-9.935-18.176-17.112-34.707-17.112-16.523 0-24.139 7.177-34.682 17.109-12.004 11.31-26.949 25.384-55.531 25.384-28.583 0-43.522-14.077-55.526-25.384-10.543-9.932-18.157-17.109-34.671-17.109-8.398 0-15.205-6.811-15.205-15.215s6.807-15.215 15.205-15.215Z"/></g></svg>